REM DIRINDEX 1\3,1\2\4,1\2\5,1\2\6
REM DIRNAME cjc137,folder01,folder02,folder03,folder04,folder05
TITLE ""
FILE "074.mp3" MP3
  TRACK 01 AUDIO
    TITLE "4:cjc137_3032"
    INDEX 01 00:00:00
  TRACK 02 AUDIO
    TITLE "0:"
    INDEX 01 00:01:17
  TRACK 03 AUDIO
    TITLE "6:cjc137_3033"
    INDEX 01 00:01:28
  TRACK 04 AUDIO
    TITLE "0:"
    INDEX 01 00:02:51
  TRACK 05 AUDIO
    TITLE "5:cjc137_3034"
    INDEX 01 00:02:57
  TRACK 06 AUDIO
    TITLE "0:"
    INDEX 01 00:03:70
  TRACK 07 AUDIO
    TITLE "4:cjc137_3035"
    INDEX 01 00:05:09
  TRACK 08 AUDIO
    TITLE "0:"
    INDEX 01 00:06:10
  TRACK 09 AUDIO
    TITLE "6:cjc137_3036"
    INDEX 01 00:06:16
  TRACK 10 AUDIO
    TITLE "0:"
    INDEX 01 00:07:15
  TRACK 11 AUDIO
    TITLE "5:cjc137_3037"
    INDEX 01 00:07:21
  TRACK 12 AUDIO
    TITLE "0:"
    INDEX 01 00:08:24
  TRACK 13 AUDIO
    TITLE "4:cjc137_3038"
    INDEX 01 00:09:30
  TRACK 14 AUDIO
    TITLE "0:"
    INDEX 01 00:10:31
  TRACK 15 AUDIO
    TITLE "6:cjc137_3039"
    INDEX 01 00:10:43
  TRACK 16 AUDIO
    TITLE "0:"
    INDEX 01 00:11:29
  TRACK 17 AUDIO
    TITLE "5:cjc137_3040"
    INDEX 01 00:11:35
  TRACK 18 AUDIO
    TITLE "0:"
    INDEX 01 00:12:36
  TRACK 19 AUDIO
    TITLE "4:cjc137_3041"
    INDEX 01 00:13:49
  TRACK 20 AUDIO
    TITLE "0:"
    INDEX 01 00:14:49
  TRACK 21 AUDIO
    TITLE "6:cjc137_3042"
    INDEX 01 00:14:53
  TRACK 22 AUDIO
    TITLE "0:"
    INDEX 01 00:15:36
  TRACK 23 AUDIO
    TITLE "5:cjc137_3043"
    INDEX 01 00:15:42
  TRACK 24 AUDIO
    TITLE "0:"
    INDEX 01 00:16:44
  TRACK 25 AUDIO
    TITLE "4:cjc137_3044"
    INDEX 01 00:17:49
  TRACK 26 AUDIO
    TITLE "0:"
    INDEX 01 00:18:60
  TRACK 27 AUDIO
    TITLE "6:cjc137_3045"
    INDEX 01 00:18:74
  TRACK 28 AUDIO
    TITLE "0:"
    INDEX 01 00:20:43
  TRACK 29 AUDIO
    TITLE "5:cjc137_3046"
    INDEX 01 00:20:49
  TRACK 30 AUDIO
    TITLE "0:"
    INDEX 01 00:21:60
  TRACK 31 AUDIO
    TITLE "4:cjc137_3047"
    INDEX 01 00:23:01
  TRACK 32 AUDIO
    TITLE "0:"
    INDEX 01 00:24:08
  TRACK 33 AUDIO
    TITLE "6:cjc137_3048"
    INDEX 01 00:24:18
  TRACK 34 AUDIO
    TITLE "0:"
    INDEX 01 00:25:33
  TRACK 35 AUDIO
    TITLE "5:cjc137_3049"
    INDEX 01 00:25:39
  TRACK 36 AUDIO
    TITLE "0:"
    INDEX 01 00:26:48
  TRACK 37 AUDIO
    TITLE "4:cjc137_3050"
    INDEX 01 00:27:55
  TRACK 38 AUDIO
    TITLE "0:"
    INDEX 01 00:28:74
  TRACK 39 AUDIO
    TITLE "6:cjc137_3051"
    INDEX 01 00:29:05
  TRACK 40 AUDIO
    TITLE "0:"
    INDEX 01 00:30:22
  TRACK 41 AUDIO
    TITLE "5:cjc137_3052"
    INDEX 01 00:30:30
  TRACK 42 AUDIO
    TITLE "0:"
    INDEX 01 00:31:45
  TRACK 43 AUDIO
    TITLE "4:cjc137_3053"
    INDEX 01 00:32:54
  TRACK 44 AUDIO
    TITLE "0:"
    INDEX 01 00:33:64
  TRACK 45 AUDIO
    TITLE "6:cjc137_3054"
    INDEX 01 00:33:69
  TRACK 46 AUDIO
    TITLE "0:"
    INDEX 01 00:35:35
  TRACK 47 AUDIO
    TITLE "5:cjc137_3055"
    INDEX 01 00:35:41
  TRACK 48 AUDIO
    TITLE "0:"
    INDEX 01 00:36:52
  TRACK 49 AUDIO
    TITLE "4:cjc137_3056"
    INDEX 01 00:37:59
  TRACK 50 AUDIO
    TITLE "0:"
    INDEX 01 00:38:73
  TRACK 51 AUDIO
    TITLE "6:cjc137_3057"
    INDEX 01 00:39:11
  TRACK 52 AUDIO
    TITLE "0:"
    INDEX 01 00:40:28
  TRACK 53 AUDIO
    TITLE "5:cjc137_3058"
    INDEX 01 00:40:32
  TRACK 54 AUDIO
    TITLE "0:"
    INDEX 01 00:41:47
  TRACK 55 AUDIO
    TITLE "4:cjc137_3059"
    INDEX 01 00:42:59
  TRACK 56 AUDIO
    TITLE "0:"
    INDEX 01 00:43:68
  TRACK 57 AUDIO
    TITLE "6:cjc137_3060"
    INDEX 01 00:43:70
  TRACK 58 AUDIO
    TITLE "0:"
    INDEX 01 00:44:73
  TRACK 59 AUDIO
    TITLE "5:cjc137_3061"
    INDEX 01 00:45:00
  TRACK 60 AUDIO
    TITLE "0:"
    INDEX 01 00:46:11
  TRACK 61 AUDIO
    TITLE "4:cjc137_3062"
    INDEX 01 00:47:17
  TRACK 62 AUDIO
    TITLE "0:"
    INDEX 01 00:48:22
  TRACK 63 AUDIO
    TITLE "6:cjc137_3063"
    INDEX 01 00:48:26
  TRACK 64 AUDIO
    TITLE "0:"
    INDEX 01 00:49:23
  TRACK 65 AUDIO
    TITLE "5:cjc137_3064"
    INDEX 01 00:49:27
  TRACK 66 AUDIO
    TITLE "0:"
    INDEX 01 00:50:31
  TRACK 67 AUDIO
    TITLE "4:cjc137_3065"
    INDEX 01 00:51:38
  TRACK 68 AUDIO
    TITLE "0:"
    INDEX 01 00:52:45
  TRACK 69 AUDIO
    TITLE "6:cjc137_3066"
    INDEX 01 00:52:51
  TRACK 70 AUDIO
    TITLE "0:"
    INDEX 01 00:53:62
  TRACK 71 AUDIO
    TITLE "5:cjc137_3067"
    INDEX 01 00:53:66
  TRACK 72 AUDIO
    TITLE "0:"
    INDEX 01 00:54:74
  TRACK 73 AUDIO
    TITLE "4:cjc137_3068"
    INDEX 01 00:56:06
  TRACK 74 AUDIO
    TITLE "0:"
    INDEX 01 00:57:17
  TRACK 75 AUDIO
    TITLE "6:cjc137_3069"
    INDEX 01 00:57:27
  TRACK 76 AUDIO
    TITLE "0:"
    INDEX 01 00:58:52
  TRACK 77 AUDIO
    TITLE "5:cjc137_3070"
    INDEX 01 00:58:56
  TRACK 78 AUDIO
    TITLE "0:"
    INDEX 01 00:59:69
  TRACK 79 AUDIO
    TITLE "4:cjc137_3071"
    INDEX 01 01:01:05
  TRACK 80 AUDIO
    TITLE "0:"
    INDEX 01 01:02:06
  TRACK 81 AUDIO
    TITLE "6:cjc137_3072"
    INDEX 01 01:02:12
  TRACK 82 AUDIO
    TITLE "0:"
    INDEX 01 01:03:22
  TRACK 83 AUDIO
    TITLE "5:cjc137_3073"
    INDEX 01 01:03:31
  TRACK 84 AUDIO
    TITLE "0:"
    INDEX 01 01:04:31
